<svg width="100" height="100" viewBox="0 0 24 24" fill="none" xmlns="http://www.w3.org/2000/svg">
<path d="M22.396 4.427c-2.731.143-4.819 1.027-6.264 2.656-1.444 1.63-2.298 3.811-2.562 6.545.452-.377.923-.566 1.413-.566 1.356 0 2.373.867 3.052 2.6.678 1.733.904 3.7.678 5.9-.452 3.844-1.96 5.766-4.522 5.766-1.808 0-3.164-1.206-4.068-3.619-.904-2.412-1.356-5.877-1.356-10.399 0-4.37.942-8.026 2.825-10.968C13.475.434 16.3 0 20.138 0c4.145 0 6.132 1.884 5.961 5.652-.075 1.13-.527 2.863-1.356 5.199-.83 2.336-1.244 4.144-1.244 5.424 0 1.281.339 1.921 1.017 1.921.678 0 1.62-.98 2.825-2.939l1.413 1.808c-2.412 3.619-4.75 5.424-7.01 5.424-2.637 0-3.882-1.733-3.738-5.199.151-2.11.83-5.05 2.035-8.818.904-2.788 1.319-4.521 1.243-5.199-.075-.678-.49-1.017-1.243-.867z" fill="#7C3AED"/>
</svg>
